[Header]
FileType HTR
DataType HTRS
FileVersion 1
NumSegments 64
NumFrames 4
DataFrameRate 30
EulerRotationOrder ZYX
CalibrationUnits mm
RotationUnits Degrees
GlobalAxisofGravity Y
BoneLengthAxis Y
ScaleFactor 1.0
[SegmentNames&Hierarchy]
Hips	GLOBAL
Spine	Hips
Spine1	Spine
Spine2	Spine1
Neck	Spine2
Head	Neck
LeftEye	Head
RightEye	Head
LeftShoulder	Spine2
LeftArm	LeftShoulder
LeftForeArm	LeftArm
LeftHand	LeftForeArm
LeftHandThumb1	LeftHand
LeftHandThumb2	LeftHandThumb1
LeftHandThumb3	LeftHandThumb2
LeftHandThumb4	LeftHandThumb3
LeftHandIndex1	LeftHand
LeftHandIndex2	LeftHandIndex1
LeftHandIndex3	LeftHandIndex2
LeftHandIndex4	LeftHandIndex3
LeftHandMiddle1	LeftHand
LeftHandMiddle2	LeftHandMiddle1
LeftHandMiddle3	LeftHandMiddle2
LeftHandMiddle4	LeftHandMiddle3
LeftHandRing1	LeftHand
LeftHandRing2	LeftHandRing1
LeftHandRing3	LeftHandRing2
LeftHandRing4	LeftHandRing3
LeftHandPinky1	LeftHand
LeftHandPinky2	LeftHandPinky1
LeftHandPinky3	LeftHandPinky2
LeftHandPinky4	LeftHandPinky3
RightShoulder	Spine2
RightArm	RightShoulder
RightForeArm	RightArm
RightHand	RightForeArm
RightHandPinky1	RightHand
RightHandPinky2	RightHandPinky1
RightHandPinky3	RightHandPinky2
RightHandPinky4	RightHandPinky3
RightHandRing1	RightHand
RightHandRing2	RightHandRing1
RightHandRing3	RightHandRing2
RightHandRing4	RightHandRing3
RightHandMiddle1	RightHand
RightHandMiddle2	RightHandMiddle1
RightHandMiddle3	RightHandMiddle2
RightHandMiddle4	RightHandMiddle3
RightHandIndex1	RightHand
RightHandIndex2	RightHandIndex1
RightHandIndex3	RightHandIndex2
RightHandIndex4	RightHandIndex3
RightHandThumb1	RightHand
RightHandThumb2	RightHandThumb1
RightHandThumb3	RightHandThumb2
RightHandThumb4	RightHandThumb3
LeftUpLeg	Hips
LeftLeg	LeftUpLeg
LeftFoot	LeftLeg
LeftToeBase	LeftFoot
RightUpLeg	Hips
RightLeg	RightUpLeg
RightFoot	RightLeg
RightToeBase	RightFoot
[BasePosition]
Hips	0	0	0	0	0	0	1
Spine	0	0	0	0	0	0	1
Spine1	0	0	0	0	0	0	1
Spine2	0	0	0	0	0	0	1
Neck	0	0	0	0	0	0	1
Head	0	0	0	0	0	0	1
LeftEye	0	0	0	0	0	0	1
RightEye	0	0	0	0	0	0	1
LeftShoulder	0	0	0	0	0	0	1
LeftArm	0	0	0	0	0	0	1
LeftForeArm	0	0	0	0	0	0	1
LeftHand	0	0	0	0	0	0	1
LeftHandThumb1	0	0	0	0	0	0	1
LeftHandThumb2	0	0	0	0	0	0	1
LeftHandThumb3	0	0	0	0	0	0	1
LeftHandThumb4	0	0	0	0	0	0	1
LeftHandIndex1	0	0	0	0	0	0	1
LeftHandIndex2	0	0	0	0	0	0	1
LeftHandIndex3	0	0	0	0	0	0	1
LeftHandIndex4	0	0	0	0	0	0	1
LeftHandMiddle1	0	0	0	0	0	0	1
LeftHandMiddle2	0	0	0	0	0	0	1
LeftHandMiddle3	0	0	0	0	0	0	1
LeftHandMiddle4	0	0	0	0	0	0	1
LeftHandRing1	0	0	0	0	0	0	1
LeftHandRing2	0	0	0	0	0	0	1
LeftHandRing3	0	0	0	0	0	0	1
LeftHandRing4	0	0	0	0	0	0	1
LeftHandPinky1	0	0	0	0	0	0	1
LeftHandPinky2	0	0	0	0	0	0	1
LeftHandPinky3	0	0	0	0	0	0	1
LeftHandPinky4	0	0	0	0	0	0	1
RightShoulder	0	0	0	0	0	0	1
RightArm	0	0	0	0	0	0	1
RightForeArm	0	0	0	0	0	0	1
RightHand	0	0	0	0	0	0	1
RightHandPinky1	0	0	0	0	0	0	1
RightHandPinky2	0	0	0	0	0	0	1
RightHandPinky3	0	0	0	0	0	0	1
RightHandPinky4	0	0	0	0	0	0	1
RightHandRing1	0	0	0	0	0	0	1
RightHandRing2	0	0	0	0	0	0	1
RightHandRing3	0	0	0	0	0	0	1
RightHandRing4	0	0	0	0	0	0	1
RightHandMiddle1	0	0	0	0	0	0	1
RightHandMiddle2	0	0	0	0	0	0	1
RightHandMiddle3	0	0	0	0	0	0	1
RightHandMiddle4	0	0	0	0	0	0	1
RightHandIndex1	0	0	0	0	0	0	1
RightHandIndex2	0	0	0	0	0	0	1
RightHandIndex3	0	0	0	0	0	0	1
RightHandIndex4	0	0	0	0	0	0	1
RightHandThumb1	0	0	0	0	0	0	1
RightHandThumb2	0	0	0	0	0	0	1
RightHandThumb3	0	0	0	0	0	0	1
RightHandThumb4	0	0	0	0	0	0	1
LeftUpLeg	0	0	0	0	0	0	1
LeftLeg	0	0	0	0	0	0	1
LeftFoot	0	0	0	0	0	0	1
LeftToeBase	0	0	0	0	0	0	1
RightUpLeg	0	0	0	0	0	0	1
RightLeg	0	0	0	0	0	0	1
RightFoot	0	0	0	0	0	0	1
RightToeBase	0	0	0	0	0	0	1
[Hips]
78	-22.06520844	862.3059082	-1358.33252	-328.6812134	-7.659747601	-2.380530596	1.0
79	-33.16281509	861.2658691	-1299.938965	-330.2187195	-8.430063248	-2.502477646	1.0
80	-45.91869736	858.5271606	-1238.634766	-331.6253967	-9.815096855	-2.956309557	1.0
81	-59.58460999	852.3233032	-1178.002197	-333.4785767	-9.597604752	-2.252170563	1.0
[Spine]
78	0	101.8159943	1.315000057	5.803817749	-3.296927929	0.7252543569	1.0
79	0	101.8159943	1.315000057	5.743673325	-3.125411749	1.225133061	1.0
80	0	101.8159943	1.315000057	5.533082008	-2.768037319	1.542624116	1.0
81	0	101.8159943	1.315000057	5.23186636	-2.428650379	1.529126048	1.0
[Spine1]
78	0	100.8349991	-10.00800037	11.57909393	-6.144364357	2.010363102	1.0
79	0	100.8349991	-10.00800037	11.43565464	-5.891325474	3.108817816	1.0
80	0	100.8349991	-10.00800037	11.00379562	-5.277896881	3.801145554	1.0
81	0	100.8349991	-10.00800037	10.40686512	-4.576508045	3.990376472	1.0
[Spine2]
78	0	91	-13.73399925	11.57910061	-6.144366264	2.010365009	1.0
79	0	91	-13.73399925	11.43566418	-5.891330242	3.108820438	1.0
80	0	91	-13.73399925	11.00379562	-5.277897835	3.80115056	1.0
81	0	91	-13.73399925	10.40686607	-4.576508999	3.990383387	1.0
[Neck]
78	0	166.7169952	-25.16200066	4.18631506	4.209821701	1.672944307	1.0
79	0	166.7169952	-25.16200066	4.12212801	4.231062889	2.332234621	1.0
80	0	166.7169952	-25.16200066	3.632025242	4.177317619	2.818791628	1.0
81	0	166.7169952	-25.16200066	2.841694832	3.995964527	3.334719896	1.0
[Head]
78	0	96.17900085	16.84999847	-40.28358459	17.00196266	-9.376950264	1.0
79	0	96.17900085	16.84999847	-40.16897583	17.81657219	-10.59956074	1.0
80	0	96.17900085	16.84999847	-40.08905792	18.18094444	-11.30022621	1.0
81	0	96.17900085	16.84999847	-39.81329346	17.86544609	-11.46181583	1.0
[LeftEye]
78	30.6760006	64.09500122	92.83599854	0	0	0	1.0
79	30.6760006	64.09500122	92.83599854	0	0	0	1.0
80	30.6760006	64.09500122	92.83599854	0	0	0	1.0
81	30.6760006	64.09500122	92.83599854	0	0	0	1.0
[RightEye]
78	-30.6760006	64.09500122	92.83499908	0	0	0	1.0
79	-30.6760006	64.09500122	92.83499908	0	0	0	1.0
80	-30.6760006	64.09500122	92.83499908	0	0	0	1.0
81	-30.6760006	64.09500122	92.83499908	0	0	0	1.0
[LeftShoulder]
78	45.70400238	109.4599991	-26.28000069	-1.851329803	-28.1536274	5.323862076	1.0
79	45.70400238	109.4599991	-26.28000069	-2.136358738	-27.18993568	6.27033186	1.0
80	45.70400238	109.4599991	-26.28000069	-2.550576448	-25.17188072	7.934506893	1.0
81	45.70400238	109.4599991	-26.28000069	-2.968726635	-22.17654037	10.10230732	1.0
[LeftArm]
78	105.923996	-5.24600029	-22.32099915	-16.26845932	-18.75908279	-12.7848978	1.0
79	105.923996	-5.24600029	-22.32099915	-22.93264771	-13.95826626	-9.7273283	1.0
80	105.923996	-5.24600029	-22.32099915	-28.10470009	-9.900285721	-8.043541908	1.0
81	105.923996	-5.24600029	-22.32099915	-32.1372757	-6.059089184	-7.362911701	1.0
[LeftForeArm]
78	278.414978	-0.0009999999311	0	-558.1497803	-88.95622253	556.1615601	1.0
79	278.414978	-0.0009999999311	0	-700.9413452	-88.22782135	698.3771362	1.0
80	278.414978	-0.0009999999311	0	-695.7260742	-87.62378693	692.6196289	1.0
81	278.414978	-0.0009999999311	0	-600.1049805	-88.20233154	596.4998779	1.0
[LeftHand]
78	283.2879944	0	0	6.406030655	-1.660758018	13.71710682	1.0
79	283.2879944	0	0	7.025245667	-5.913516045	14.46205616	1.0
80	283.2879944	0	0	7.415759087	-8.041546822	16.65937996	1.0
81	283.2879944	0	0	6.989822388	-6.623394012	18.27555084	1.0
[LeftHandThumb1]
78	24.6609993	-15.75	26.8239994	2.581901789	-1.190060973	17.67975616	1.0
79	24.6609993	-15.75	26.8239994	4.942132473	1.527398705	18.07983208	1.0
80	24.6609993	-15.75	26.8239994	6.119339943	2.706377983	18.41941643	1.0
81	24.6609993	-15.75	26.8239994	6.106991768	2.345656633	18.53007317	1.0
[LeftHandThumb2]
78	32.29800034	-18.64699936	18.64699936	5.33187294	12.57617283	-2.603339672	1.0
79	32.29800034	-18.64699936	18.64699936	5.179313183	16.95896912	0.03668427467	1.0
80	32.29800034	-18.64699936	18.64699936	5.102591038	18.9712677	1.110092878	1.0
81	32.29800034	-18.64699936	18.64699936	5.141395092	18.62769127	0.6734461784	1.0
[LeftHandThumb3]
78	26.52600098	-15.31499958	15.31499958	3.601811159e-06	-8.438974328e-05	-6.943767221e-05	1.0
79	26.52600098	-15.31499958	15.31499958	3.601811159e-06	-8.438974328e-05	-6.943767221e-05	1.0
80	26.52600098	-15.31499958	15.31499958	3.601811159e-06	-8.438974328e-05	-6.943767221e-05	1.0
81	26.52600098	-15.31499958	15.31499958	3.601811159e-06	-8.438974328e-05	-6.943767221e-05	1.0
[LeftHandThumb4]
78	19.54599953	-11.28499985	11.28499985	0	0	0	1.0
79	19.54599953	-11.28499985	11.28499985	0	0	0	1.0
80	19.54599953	-11.28499985	11.28499985	0	0	0	1.0
81	19.54599953	-11.28499985	11.28499985	0	0	0	1.0
[LeftHandIndex1]
78	91.09299469	-5.170999527	22.60099792	-0.1663039327	-1.561246157	-12.49040413	1.0
79	91.09299469	-5.170999527	22.60099792	-0.3270635307	-2.086335659	-15.00009632	1.0
80	91.09299469	-5.170999527	22.60099792	-0.3964343369	-2.332923412	-16.15906525	1.0
81	91.09299469	-5.170999527	22.60099792	-0.3849439025	-2.292692423	-15.96945858	1.0
[LeftHandIndex2]
78	36.76399994	0	0	-0.8432818651	-1.060322046	-30.45694733	1.0
79	36.76399994	0	0	-1.114992023	-2.30251646	-39.40506363	1.0
80	36.76399994	0	0	-1.154340744	-2.894171953	-43.54071426	1.0
81	36.76399994	0	0	-1.145499706	-2.798070431	-42.86416245	1.0
[LeftHandIndex3]
78	28.83100128	0	0	-1.432096042e-06	3.907105395e-07	1.552835329e-06	1.0
79	28.83100128	0	0	-1.432096042e-06	3.907105395e-07	1.552835329e-06	1.0
80	28.83100128	0	0	-1.432096042e-06	3.907105395e-07	1.552835329e-06	1.0
81	28.83100128	0	0	-1.432096042e-06	3.907105395e-07	1.552835329e-06	1.0
[LeftHandIndex4]
78	23.92700005	0	0	0	0	0	1.0
79	23.92700005	0	0	0	0	0	1.0
80	23.92700005	0	0	0	0	0	1.0
81	23.92700005	0	0	0	0	0	1.0
[LeftHandMiddle1]
78	95.33399963	0	0	-0.9520975351	-0.4830179214	-21.7982769	1.0
79	95.33399963	0	0	-1.18418479	-0.9320274591	-25.60947609	1.0
80	95.33399963	0	0	-1.27831924	-1.146328807	-27.37034225	1.0
81	95.33399963	0	0	-1.262568831	-1.111477494	-27.08229256	1.0
[LeftHandMiddle2]
78	36.98199844	0	0	-0.6100824475	-2.489346743	-28.63545227	1.0
79	36.98199844	0	0	-0.6994931698	-3.638332129	-38.1247673	1.0
80	36.98199844	0	0	-0.6562645435	-4.174608707	-42.51437378	1.0
81	36.98199844	0	0	-0.660961926	-4.087214947	-41.79640961	1.0
[LeftHandMiddle3]
78	29.50900078	0	0	0	-3.180554719e-15	-7.951386796e-16	1.0
79	29.50900078	0	0	0	-3.180554719e-15	-7.951386796e-16	1.0
80	29.50900078	0	0	0	-3.180554719e-15	-7.951386796e-16	1.0
81	29.50900078	0	0	0	-3.180554719e-15	-7.951386796e-16	1.0
[LeftHandMiddle4]
78	28.3390007	0	0	0	0	0	1.0
79	28.3390007	0	0	0	0	0	1.0
80	28.3390007	0	0	0	0	0	1.0
81	28.3390007	0	0	0	0	0	1.0
[LeftHandRing1]
78	91.04499817	-0.4390000105	-18.65100098	-3.079374075	4.910689354	-33.16996002	1.0
79	91.04499817	-0.4390000105	-18.65100098	-3.182337523	4.230117798	-37.30284119	1.0
80	91.04499817	-0.4390000105	-18.65100098	-3.213255882	3.910814524	-39.21078873	1.0
81	91.04499817	-0.4390000105	-18.65100098	-3.207739353	3.962898254	-38.89862442	1.0
[LeftHandRing2]
78	31.54000092	0	0	2.091195345	-2.621410608	-37.5920105	1.0
79	31.54000092	0	0	2.884155512	-2.817830563	-47.11699295	1.0
80	31.54000092	0	0	3.264269829	-2.850003481	-51.52113724	1.0
81	31.54000092	0	0	3.202590942	-2.843106508	-50.80078506	1.0
[LeftHandRing3]
78	29.37700081	0	0	1.590277359e-15	3.180554719e-15	-7.951386796e-16	1.0
79	29.37700081	0	0	1.590277359e-15	3.180554719e-15	-7.951386796e-16	1.0
80	29.37700081	0	0	1.590277359e-15	3.180554719e-15	-7.951386796e-16	1.0
81	29.37700081	0	0	1.590277359e-15	3.180554719e-15	-7.951386796e-16	1.0
[LeftHandRing4]
78	26.47500038	0	0	0	0	0	1.0
79	26.47500038	0	0	0	0	0	1.0
80	26.47500038	0	0	0	0	0	1.0
81	26.47500038	0	0	0	0	0	1.0
[LeftHandPinky1]
78	80.77799988	-4.887000084	-38.06099701	-3.758555174	9.719979286	-31.52201462	1.0
79	80.77799988	-4.887000084	-38.06099701	-3.771122217	8.441367149	-35.6634407	1.0
80	80.77799988	-4.887000084	-38.06099701	-3.760285854	7.845815182	-37.56602478	1.0
81	80.77799988	-4.887000084	-38.06099701	-3.759376287	7.944961071	-37.23885345	1.0
[LeftHandPinky2]
78	36	0	0	5.154928207	-4.252662659	-47.56666565	1.0
79	36	0	0	5.893271446	-3.84161973	-53.0366478	1.0
80	36	0	0	6.218943596	-3.61766696	-55.59572601	1.0
81	36	0	0	6.169967651	-3.647023201	-55.25169373	1.0
[LeftHandPinky3]
78	21.14200211	0	0	3.226109357e-06	2.925280342e-06	-5.739977951e-06	1.0
79	21.14200211	0	0	3.226109357e-06	2.925280342e-06	-5.739977951e-06	1.0
80	21.14200211	0	0	3.226109357e-06	2.925280342e-06	-5.739977951e-06	1.0
81	21.14200211	0	0	3.226109357e-06	2.925280342e-06	-5.739977951e-06	1.0
[LeftHandPinky4]
78	19.75699997	0	0	0	0	0	1.0
79	19.75699997	0	0	0	0	0	1.0
80	19.75699997	0	0	0	0	0	1.0
81	19.75699997	0	0	0	0	0	1.0
[RightShoulder]
78	-45.70000076	109.4620056	-26.28000069	4.634075642	12.83210182	11.30649567	1.0
79	-45.70000076	109.4620056	-26.28000069	5.098871231	13.6186018	11.45018291	1.0
80	-45.70000076	109.4620056	-26.28000069	5.394908905	13.59488392	11.6070013	1.0
81	-45.70000076	109.4620056	-26.28000069	5.632955074	12.60985756	11.76930046	1.0
[RightArm]
78	-105.9280014	-5.248000145	-22.32099915	-16.17736816	-4.63398838	53.48731232	1.0
79	-105.9280014	-5.248000145	-22.32099915	-14.24773121	-4.431223869	50.74768066	1.0
80	-105.9280014	-5.248000145	-22.32099915	-11.15525436	-2.058121204	46.67990875	1.0
81	-105.9280014	-5.248000145	-22.32099915	-7.436852455	1.788790703	43.7951088	1.0
[RightForeArm]
78	-278.414978	0	0	-12.84026146	16.46591187	0.8591976762	1.0
79	-278.414978	0	0	-13.30840969	19.59863281	1.034533739	1.0
80	-278.414978	0	0	-13.07731628	24.18494225	1.147283673	1.0
81	-278.414978	0	0	-12.35208988	28.93157387	1.185565352	1.0
[RightHand]
78	-283.2879944	0	0.0009999999311	-34.71910858	12.01748562	5.796937466	1.0
79	-283.2879944	0	0.0009999999311	-38.13753128	23.68272972	14.65412617	1.0
80	-283.2879944	0	0.0009999999311	-39.79341125	29.56403923	15.24635601	1.0
81	-283.2879944	0	0.0009999999311	-41.30699921	32.55491257	12.23510075	1.0
[RightHandPinky1]
78	-80.76699829	-4.885000229	-38.06000137	-2.438711882	-21.24007034	22.91985893	1.0
79	-80.76699829	-4.885000229	-38.06000137	-2.100667953	-19.8533783	22.80372047	1.0
80	-80.76699829	-4.885000229	-38.06000137	-1.818954349	-18.14090538	24.36291313	1.0
81	-80.76699829	-4.885000229	-38.06000137	-1.763658762	-15.83455849	29.88750648	1.0
[RightHandPinky2]
78	-36	0	0.0009999999311	8.677781105	5.785311222	61.8897171	1.0
79	-36	0	0.0009999999311	8.670543671	5.787316322	61.86955261	1.0
80	-36	0	0.0009999999311	8.717820168	5.759584904	62.21186829	1.0
81	-36	0	0.0009999999311	8.981693268	5.630604744	63.82843781	1.0
[RightHandPinky3]
78	-21.14200211	0	0	-1.590277359e-15	0	-7.951386796e-16	1.0
79	-21.14200211	0	0	-1.590277359e-15	0	-7.951386796e-16	1.0
80	-21.14200211	0	0	-1.590277359e-15	0	-7.951386796e-16	1.0
81	-21.14200211	0	0	-1.590277359e-15	0	-7.951386796e-16	1.0
[RightHandPinky4]
78	-19.75699997	0	0	0	0	0	1.0
79	-19.75699997	0	0	0	0	0	1.0
80	-19.75699997	0	0	0	0	0	1.0
81	-19.75699997	0	0	0	0	0	1.0
[RightHandRing1]
78	-91.03599548	-0.4390000105	-18.65100098	-2.197708845	-9.860665321	22.29684258	1.0
79	-91.03599548	-0.4390000105	-18.65100098	-1.902042747	-8.895325661	22.31855774	1.0
80	-91.03599548	-0.4390000105	-18.65100098	-1.681925178	-7.679543972	24.09462929	1.0
81	-91.03599548	-0.4390000105	-18.65100098	-1.696251035	-5.980762005	29.93025208	1.0
[RightHandRing2]
78	-31.54000092	0	0	3.23737812	3.772241831	46.11830521	1.0
79	-31.54000092	0	0	3.227796555	3.769665718	46.02629089	1.0
80	-31.54000092	0	0	3.254435539	3.777748346	46.305336	1.0
81	-31.54000092	0	0	3.436837435	3.826152325	48.03526306	1.0
[RightHandRing3]
78	-29.37700081	0	0	5.740008078e-07	-7.531911024e-07	-2.69121324e-06	1.0
79	-29.37700081	0	0	5.740008078e-07	-7.531911024e-07	-2.69121324e-06	1.0
80	-29.37700081	0	0	5.740008078e-07	-7.531911024e-07	-2.69121324e-06	1.0
81	-29.37700081	0	0	5.740008078e-07	-7.531911024e-07	-2.69121324e-06	1.0
[RightHandRing4]
78	-26.47500038	0	0	0	0	0	1.0
79	-26.47500038	0	0	0	0	0	1.0
80	-26.47500038	0	0	0	0	0	1.0
81	-26.47500038	0	0	0	0	0	1.0
[RightHandMiddle1]
78	-95.32500458	0	0	-1.525630832	-0.4056117833	13.85729408	1.0
79	-95.32500458	0	0	-1.540937066	-0.3897430301	14.02217102	1.0
80	-95.32500458	0	0	-1.686238408	-0.17874147	15.93530369	1.0
81	-95.32500458	0	0	-2.098104715	0.4882495999	21.90764999	1.0
[RightHandMiddle2]
78	-36.98199844	0	0	-0.9470000863	3.265576839	41.22750473	1.0
79	-36.98199844	0	0	-0.9470365047	3.254068375	41.11943436	1.0
80	-36.98199844	0	0	-0.9450048208	3.28861022	41.4356575	1.0
81	-36.98199844	0	0	-0.9463236928	3.505330324	43.47916412	1.0
[RightHandMiddle3]
78	-29.50900078	0	0	1.856611448e-06	-0.002022909233	1.577868488e-06	1.0
79	-29.50900078	0	0	1.856611448e-06	-0.002022909233	1.577868488e-06	1.0
80	-29.50900078	0	0	1.856611448e-06	-0.002022909233	1.577868488e-06	1.0
81	-29.50900078	0	0	1.856611448e-06	-0.002022909233	1.577868488e-06	1.0
[RightHandMiddle4]
78	-28.3390007	0	0.0009999999311	0	0	0	1.0
79	-28.3390007	0	0.0009999999311	0	0	0	1.0
80	-28.3390007	0	0.0009999999311	0	0	0	1.0
81	-28.3390007	0	0.0009999999311	0	0	0	1.0
[RightHandIndex1]
78	-91.08300018	-5.167999744	22.60099792	0.3580547869	6.854791164	3.478420258	1.0
79	-91.08300018	-5.167999744	22.60099792	0.2825045288	6.509736538	3.673635244	1.0
80	-91.08300018	-5.167999744	22.60099792	0.001661960036	6.255660057	5.718218327	1.0
81	-91.08300018	-5.167999744	22.60099792	-0.638438046	6.314287663	12.14294243	1.0
[RightHandIndex2]
78	-36.76399994	0	0	-1.48882854	2.073326111	43.75288391	1.0
79	-36.76399994	0	0	-1.486774325	2.057066679	43.62531662	1.0
80	-36.76399994	0	0	-1.490470529	2.109348774	44.02343369	1.0
81	-36.76399994	0	0	-1.531733394	2.411993504	46.41075516	1.0
[RightHandIndex3]
78	-28.83100128	0	0	-3.180554719e-15	0	0	1.0
79	-28.83100128	0	0	-3.180554719e-15	0	0	1.0
80	-28.83100128	0	0	-3.180554719e-15	0	0	1.0
81	-28.83100128	0	0	-3.180554719e-15	0	0	1.0
[RightHandIndex4]
78	-23.92700005	0	0	0	0	0	1.0
79	-23.92700005	0	0	0	0	0	1.0
80	-23.92700005	0	0	0	0	0	1.0
81	-23.92700005	0	0	0	0	0	1.0
[RightHandThumb1]
78	-24.64799881	-15.72700024	26.82600021	-0.7893871665	5.50097847	-17.55657387	1.0
79	-24.64799881	-15.72700024	26.82600021	-0.6604055762	5.632437706	-17.72809792	1.0
80	-24.64799881	-15.72700024	26.82600021	-0.5072411299	5.739015102	-17.89472389	1.0
81	-24.64799881	-15.72700024	26.82600021	-0.3224326968	5.7674613	-17.68779945	1.0
[RightHandThumb2]
78	-32.29800034	-18.64699936	18.64699936	5.617584705	-5.890980244	7.008291245	1.0
79	-32.29800034	-18.64699936	18.64699936	5.669709682	-5.845536709	7.208636284	1.0
80	-32.29800034	-18.64699936	18.64699936	5.810691833	-5.910095215	7.426207066	1.0
81	-32.29800034	-18.64699936	18.64699936	6.224125385	-6.594611645	7.87044096	1.0
[RightHandThumb3]
78	-26.52600098	-15.31399918	15.31399918	-3.81245151e-08	-0.00121095567	-0.001221005921	1.0
79	-26.52600098	-15.31399918	15.31399918	-3.81245151e-08	-0.00121095567	-0.001221005921	1.0
80	-26.52600098	-15.31399918	15.31399918	-3.81245151e-08	-0.00121095567	-0.001221005921	1.0
81	-26.52600098	-15.31399918	15.31399918	-3.81245151e-08	-0.00121095567	-0.001221005921	1.0
[RightHandThumb4]
78	-19.54599953	-11.28499985	11.28499985	0	0	0	1.0
79	-19.54599953	-11.28499985	11.28499985	0	0	0	1.0
80	-19.54599953	-11.28499985	11.28499985	0	0	0	1.0
81	-19.54599953	-11.28499985	11.28499985	0	0	0	1.0
[LeftUpLeg]
78	82.07800293	-67.51699829	-15.99599934	-30.97553825	12.28712082	-5.540715694	1.0
79	82.07800293	-67.51699829	-15.99599934	-22.72091675	12.84995461	-4.406018734	1.0
80	82.07800293	-67.51699829	-15.99599934	-16.11714554	13.59126568	-2.543383121	1.0
81	82.07800293	-67.51699829	-15.99599934	-13.41279316	14.12339401	-0.1917511076	1.0
[LeftLeg]
78	0	-443.7049866	2.845999956	47.04162979	2.65321064	-0.2191835046	1.0
79	0	-443.7049866	2.845999956	41.90089035	1.007228017	-0.5784866214	1.0
80	0	-443.7049866	2.845999956	40.03210449	-1.215905547	-1.695379972	1.0
81	0	-443.7049866	2.845999956	45.61869431	-4.33500433	-4.664227486	1.0
[LeftFoot]
78	0	-444.2789917	-29.8219986	-46.27190018	-1.535129666	2.223707199	1.0
79	0	-444.2789917	-29.8219986	-42.87867737	-1.421336293	-0.8306882381	1.0
80	0	-444.2789917	-29.8219986	-36.07793808	-2.117239952	-5.039535046	1.0
81	0	-444.2789917	-29.8219986	-27.03420067	-3.510430574	-8.517887115	1.0
[LeftToeBase]
78	0	-87.28699493	107.1060028	-3.818635941	-0.01369886845	-0.06398243457	1.0
79	0	-87.28699493	107.1060028	-7.642446518	0.01812122762	0.1470572203	1.0
80	0	-87.28699493	107.1060028	-14.03337097	0.3925189674	1.614632607	1.0
81	0	-87.28699493	107.1060028	-18.11128426	1.303416729	4.786537647	1.0
[RightUpLeg]
78	-82.07800293	-67.51699829	-15.99599934	-74.04386902	-3.338787317	-5.716875076	1.0
79	-82.07800293	-67.51699829	-15.99599934	-73.25693512	-1.317358255	-5.450091839	1.0
80	-82.07800293	-67.51699829	-15.99599934	-71.42486572	0.01331208088	-5.103704929	1.0
81	-82.07800293	-67.51699829	-15.99599934	-67.27937317	-0.07999648899	-5.318510056	1.0
[RightLeg]
78	0	-443.7049866	2.861999989	62.4002037	3.533647299	0.8492556214	1.0
79	0	-443.7049866	2.861999989	61.24766541	4.283735752	2.040248632	1.0
80	0	-443.7049866	2.861999989	62.2424736	4.892337322	3.211730957	1.0
81	0	-443.7049866	2.861999989	66.38861847	4.80813694	3.41185689	1.0
[RightFoot]
78	0	-444.2770081	-29.83799934	-17.21689224	1.057309508	12.36572266	1.0
79	0	-444.2770081	-29.83799934	-17.27572823	0.8315413594	10.56896114	1.0
80	0	-444.2770081	-29.83799934	-18.83138275	0.7495898604	8.923422813	1.0
81	0	-444.2770081	-29.83799934	-25.1777668	1.096650004	8.00752449	1.0
[RightToeBase]
78	0	-87.28699493	107.1060028	-2.282655716	4.082594387e-06	-4.581042958e-07	1.0
79	0	-87.28699493	107.1060028	-1.836844563	4.002463356e-06	1.309124286e-06	1.0
80	0	-87.28699493	107.1060028	-1.711239576	8.609695783e-07	7.591889926e-07	1.0
81	0	-87.28699493	107.1060028	-2.053635597	1.878836656e-06	-1.567948175e-06	1.0
[EndOfFile]
